<svg xmlns="http://www.w3.org/2000/svg" viewBox="0 0 750 750"><title>background</title><path d="M107.554,724.73459l29.30209,15.26089V710.72941ZM56.61084,698.20253,107.554,724.734V677.25169Zm-42.974-22.38346,42.974,22.38217V660.28157Z" style="fill:#ccc"/><path d="M13.1331,676.00159l.5037-.18269-.5037-.26185Zm0-360.22791L34.596,313.13555v-158.479l-21.46289-6.285Z" style="fill:#ccc"/><polygon points="13.133 675.557 13.637 675.819 56.611 660.281 56.611 657.328 13.133 672.879 13.133 590.79 47.119 582.094 13.133 570.766 13.133 675.557" style="fill:#b3b3b3"/><polygon points="13.133 315.774 13.133 501.083 56.611 494.795 56.611 466.748 34.596 469.123 34.596 327.541 13.133 325.984 34.596 323.738 34.596 313.136 13.133 315.774" style="fill:#b3b3b3"/><polygon points="13.133 570.766 47.119 582.094 56.611 579.666 56.611 510.155 13.133 501.083 13.133 570.766" style="fill:#999"/><polygon points="136.856 710.73 136.856 739.996 331.685 638.523 331.685 617.609 136.856 710.73" style="fill:#ccc"/><polygon points="81.845 651.158 56.611 660.281 56.611 698.202 56.612 698.202 107.554 677.252 107.554 661.323 81.845 671.321 81.845 651.158" style="fill:#b3b3b3"/><polygon points="81.845 648.302 56.611 657.328 56.611 660.282 81.845 651.158 81.845 648.302" style="fill:#999"/><polygon points="56.611 510.154 56.611 579.666 81.845 573.209 81.845 515.42 56.611 510.154" style="fill:gray"/><polygon points="454.975 382.47 454.975 392.063 468.872 391.773 468.872 382.546 454.975 382.47" style="fill:#ccc"/><path d="M408.97527,557.90648l-77.29061,32.6556v27.04734l77.29061-36.94186ZM107.55422,724.73478h0v-.00064" style="fill:#ccc"/><polygon points="136.857 665.2 107.554 677.251 107.554 724.735 136.857 710.73 136.857 665.2" style="fill:#b3b3b3"/><polygon points="331.685 590.562 136.856 672.879 136.856 665.201 136.856 710.73 331.685 617.61 331.685 590.562" style="fill:#b3b3b3"/><polygon points="136.857 649.928 107.554 661.323 107.554 677.251 136.857 665.2 136.857 649.928" style="fill:#999"/><polygon points="34.596 327.541 34.596 469.123 56.611 466.748 56.611 426.664 56.611 329.138 34.596 327.541" style="fill:#999"/><polygon points="56.611 329.138 56.611 426.664 56.611 380.284 81.845 380.422 81.845 330.968 56.611 329.138" style="fill:gray"/><path d="M448.97638,231.868l5.99873,2.47027v-3.3908ZM81.84531,13.00481V53.50288l39.28152-20.716Z" style="fill:#ccc"/><polygon points="377.153 382.043 377.153 393.684 454.976 392.063 454.976 382.47 377.153 382.043" style="fill:#b3b3b3"/><polygon points="339.631 381.837 339.631 394.466 377.153 393.684 377.153 382.043 339.631 381.837" style="fill:#999"/><polygon points="81.845 330.968 81.845 380.422 107.554 380.563 107.554 348.956 136.856 350.417 136.856 334.958 81.845 330.968" style="fill:#666"/><polyline points="298.135 381.609 298.135 395.331 339.631 394.466 339.631 381.836 298.135 381.609" style="fill:gray"/><polygon points="107.554 348.955 107.554 380.563 136.856 380.724 136.856 350.417 107.554 348.955" style="fill:#4d4d4d"/><polygon points="107.554 641.863 81.845 651.158 81.845 671.321 107.554 661.323 107.554 641.863" style="fill:#999"/><polygon points="107.554 639.107 81.845 648.302 81.845 651.158 107.554 641.863 107.554 639.107" style="fill:gray"/><polygon points="81.845 515.42 81.845 573.209 136.856 559.133 136.856 554.915 107.554 562.231 107.554 520.784 81.845 515.42" style="fill:#666"/><polygon points="107.554 520.784 107.554 562.232 136.856 554.915 136.856 526.897 107.554 520.784" style="fill:#4d4d4d"/><polygon points="136.857 631.269 107.554 641.863 107.554 661.323 136.857 649.928 136.857 631.269" style="fill:gray"/><polygon points="136.857 628.626 107.554 639.106 107.554 641.863 136.857 631.268 136.857 628.626" style="fill:#666"/><path d="M518.90115,313.2568v14.42655l25.70868,4.85687v-13.192Zm25.70868,35.02613-25.70868.853v4.02445l-29.30142-3.05181-34.62407,1.14893v15.02929l13.89579.69348v15.56582l75.73838.41557Z" style="fill:#ccc"/><polygon points="454.975 366.287 454.975 382.47 468.872 382.546 468.872 366.98 454.975 366.287" style="fill:#b3b3b3"/><polygon points="454.975 351.258 390.895 353.384 377.153 352.387 377.153 362.405 454.975 366.287 454.975 351.258" style="fill:#b3b3b3"/><polygon points="377.153 362.405 377.153 382.043 454.976 382.47 454.976 366.287 377.153 362.405" style="fill:#999"/><polygon points="339.631 349.666 339.631 360.533 377.153 362.405 377.153 352.388 339.631 349.666" style="fill:#999"/><polygon points="339.631 360.533 339.631 381.837 377.153 382.043 377.153 362.405 339.631 360.533" style="fill:gray"/><polygon points="246.358 342.901 246.358 355.88 339.631 360.533 339.631 349.666 246.358 342.901" style="fill:gray"/><polygon points="136.857 334.958 136.857 350.417 246.358 355.88 246.358 342.9 136.857 334.958" style="fill:#666"/><polygon points="246.358 355.88 246.358 381.325 298.135 381.609 339.631 381.837 339.631 360.533 246.358 355.88" style="fill:#666"/><polygon points="136.857 350.417 136.857 380.724 246.358 381.325 246.358 355.88 136.857 350.417" style="fill:#4d4d4d"/><path d="M560.59173,389.86263l-91.7204,1.91061v33.92993l62.51608-7.35221v7.7813l29.20432-4.22388Zm0,92.78888L445.36534,526.35314v3.59924L419.60264,539.971v8.947l-10.62721,4.37055v4.61756l151.6163-64.05932Z" style="fill:#ccc"/><polygon points="419.603 539.971 408.975 544.104 408.975 553.289 419.603 548.917 419.603 539.971" style="fill:#b3b3b3"/><polygon points="468.872 391.773 454.975 392.063 454.975 427.337 468.872 425.703 468.872 391.773" style="fill:#b3b3b3"/><polygon points="408.975 553.288 331.685 585.075 331.685 590.562 408.975 557.906 408.975 553.288" style="fill:#b3b3b3"/><polygon points="331.685 585.075 136.856 665.201 136.856 672.879 331.685 590.562 331.685 585.075" style="fill:#999"/><polygon points="408.975 544.104 331.685 574.161 331.685 585.075 408.975 553.288 408.975 544.104" style="fill:#999"/><polygon points="331.685 574.161 136.856 649.928 136.856 665.201 331.685 585.075 331.685 574.161" style="fill:gray"/><polygon points="454.975 392.063 377.153 393.685 377.153 408.934 419.603 406.586 419.603 417.792 445.366 415.645 445.366 428.468 454.975 427.337 454.975 392.063" style="fill:#999"/><polygon points="419.603 406.586 377.153 408.934 377.153 421.329 419.603 417.792 419.603 406.586" style="fill:gray"/><polygon points="377.153 393.684 339.631 394.466 339.631 411.01 377.153 408.934 377.153 393.684" style="fill:gray"/><polygon points="377.153 408.934 339.631 411.009 339.631 424.456 377.153 421.329 377.153 408.934" style="fill:#666"/><polygon points="339.631 394.466 298.135 395.331 298.135 413.305 339.631 411.01 339.631 394.466" style="fill:#666"/><polygon points="339.631 411.01 298.135 413.305 298.135 427.914 339.631 424.456 339.631 411.01" style="fill:#4d4d4d"/><polygon points="445.366 526.353 419.603 536.124 419.603 539.971 445.366 529.952 445.366 526.353" style="fill:#b3b3b3"/><polygon points="419.603 536.124 408.975 540.155 408.975 544.104 419.603 539.971 419.603 536.124" style="fill:#999"/><polygon points="408.975 540.154 334.948 568.23 331.685 567.549 331.685 574.161 408.975 544.104 408.975 540.154" style="fill:gray"/><polygon points="316.483 564.377 246.358 589.459 246.358 591.678 136.857 631.269 136.857 649.928 331.685 574.162 331.685 567.549 316.483 564.377" style="fill:#666"/><polygon points="246.358 589.459 136.856 628.626 136.856 631.268 246.358 591.677 246.358 589.459" style="fill:#4d4d4d"/><polygon points="445.366 415.645 419.603 417.791 419.603 431.497 445.366 428.468 445.366 415.645" style="fill:gray"/><polygon points="419.603 417.792 377.153 421.329 377.153 432.175 339.631 436.223 339.631 440.903 419.603 431.498 419.603 417.792" style="fill:#666"/><polygon points="339.631 436.222 298.135 440.698 298.135 445.784 339.631 440.904 339.631 436.222" style="fill:#4d4d4d"/><polygon points="377.153 421.329 339.631 424.456 339.631 436.222 377.153 432.175 377.153 421.329" style="fill:#4d4d4d"/><polygon points="339.631 424.456 298.135 427.914 298.135 440.698 339.631 436.223 339.631 424.456" style="fill:#333"/><polygon points="531.387 418.351 468.872 425.704 468.872 435.173 531.387 426.132 531.387 418.351" style="fill:#b3b3b3"/><polygon points="468.872 425.703 454.975 427.337 454.975 430.23 445.365 431.436 445.365 438.573 468.872 435.173 468.872 425.703" style="fill:#999"/><polygon points="454.975 427.338 445.366 428.468 445.366 431.437 454.975 430.23 454.975 427.338" style="fill:gray"/><polygon points="197.983 539.652 136.856 554.915 136.856 559.133 206.249 541.377 197.983 539.652" style="fill:#4d4d4d"/><polygon points="445.366 431.436 419.603 434.671 419.603 442.299 445.366 438.573 445.366 431.436" style="fill:gray"/><polygon points="419.603 434.671 298.135 449.921 298.135 459.866 419.603 442.299 419.603 434.671" style="fill:#666"/><polygon points="136.857 526.898 136.857 554.915 197.983 539.652 136.857 526.898" style="fill:#333"/><polygon points="445.366 428.468 419.603 431.498 419.603 434.671 445.366 431.437 445.366 428.468" style="fill:#666"/><polygon points="419.603 431.498 339.631 440.903 339.631 442.717 298.135 447.755 298.135 449.92 419.603 434.671 419.603 431.498" style="fill:#4d4d4d"/><polygon points="339.631 440.903 298.135 445.783 298.135 447.755 339.631 442.717 339.631 440.903" style="fill:#333"/><polygon points="454.975 234.338 454.975 298.111 518.901 313.257 518.901 260.668 454.975 234.338" style="fill:#ccc"/><polygon points="279.923 187.256 279.923 256.636 454.975 298.111 454.975 234.338 448.977 231.867 415.869 236.947 279.923 187.256" style="fill:#b3b3b3"/><path d="M454.97547,298.1111v17.49441L518.901,327.68272V313.25684ZM518.901,349.136l-29.30082.97268,29.30082,3.0518Z" style="fill:#b3b3b3"/><polygon points="279.923 256.636 279.923 273.292 377.153 293.327 377.153 300.902 454.975 315.605 454.975 298.111 279.923 256.636" style="fill:#999"/><polygon points="279.923 273.292 279.923 298.066 332.835 292.529 377.153 300.902 377.153 293.327 279.923 273.292" style="fill:gray"/><path d="M34.59619,78.02882v.39051l.42586-.22388Zm0,19.55485V154.6562l47.24873,13.8347V114.85424Z" style="fill:#ccc"/><polygon points="34.596 154.656 34.596 222.74 81.845 232.476 81.845 168.491 34.596 154.656" style="fill:#b3b3b3"/><polygon points="34.596 222.74 34.596 313.135 56.611 310.429 56.611 282.904 81.845 286.264 81.845 232.476 34.596 222.74" style="fill:#999"/><polygon points="56.611 310.429 34.596 313.136 34.596 323.738 56.611 321.435 56.611 310.429" style="fill:gray"/><polygon points="56.611 282.905 56.611 310.429 81.845 307.327 81.845 286.264 56.611 282.905" style="fill:gray"/><polygon points="81.845 307.327 56.611 310.429 56.611 321.435 81.845 318.794 81.845 307.327" style="fill:#666"/><polygon points="81.845 114.854 81.845 168.491 136.856 184.599 136.856 134.962 81.845 114.854" style="fill:#b3b3b3"/><polygon points="81.845 168.491 81.845 232.476 136.856 243.811 136.856 222.739 136.856 184.598 81.845 168.491" style="fill:#999"/><polygon points="81.845 232.476 81.845 286.264 136.856 293.588 136.856 243.811 81.845 232.476" style="fill:gray"/><polygon points="81.845 286.264 81.845 307.327 136.856 300.565 136.856 313.037 136.856 293.588 81.845 286.264" style="fill:#666"/><polygon points="136.857 300.565 81.845 307.328 81.845 318.794 136.857 313.037 136.857 300.565" style="fill:#4d4d4d"/><polygon points="136.857 134.962 136.857 184.598 246.358 216.662 246.358 248.684 279.923 256.636 279.923 187.255 136.857 134.962" style="fill:#999"/><polygon points="136.857 184.599 136.857 222.74 246.358 248.684 246.358 216.661 136.857 184.599" style="fill:gray"/><polygon points="246.358 248.684 246.358 266.376 279.923 273.292 279.923 256.636 246.358 248.684" style="fill:gray"/><polygon points="136.857 222.74 136.857 243.811 246.358 266.376 246.358 248.684 136.857 222.74" style="fill:#666"/><polygon points="246.358 266.375 246.358 301.578 279.923 298.066 279.923 273.292 246.358 266.375" style="fill:#666"/><polygon points="136.857 243.811 136.857 293.588 218.651 304.478 246.358 301.579 246.358 266.376 136.857 243.811" style="fill:#4d4d4d"/><polygon points="136.857 293.588 136.857 313.037 218.651 304.478 136.857 293.588" style="fill:#333"/><polygon points="81.845 474.012 56.611 477.075 56.611 494.795 81.845 491.145 81.845 477.075 81.845 474.012" style="fill:gray"/><polygon points="81.845 464.027 56.611 466.748 56.611 477.075 81.845 474.012 81.845 464.027" style="fill:#666"/><polygon points="56.611 380.284 56.611 426.664 81.845 425.268 81.845 380.422 56.611 380.284" style="fill:#666"/><polygon points="81.845 425.268 56.611 426.664 56.611 466.749 81.845 464.027 81.845 425.268" style="fill:#4d4d4d"/><polygon points="81.845 380.422 81.845 425.268 107.554 423.846 107.554 380.563 81.845 380.422" style="fill:#4d4d4d"/><polygon points="107.554 423.846 81.845 425.269 81.845 464.026 81.845 445.939 107.554 443.796 107.554 423.846" style="fill:#333"/><polygon points="246.358 381.325 246.358 396.41 298.135 395.331 298.135 381.609 246.358 381.325" style="fill:#666"/><polygon points="136.857 380.724 136.857 422.226 136.857 398.691 246.358 396.409 246.358 381.325 136.857 380.724" style="fill:#4d4d4d"/><polygon points="107.554 380.563 107.554 423.846 136.856 422.226 136.856 380.724 107.554 380.563" style="fill:#333"/><polygon points="136.857 422.225 107.554 423.846 107.554 443.796 136.857 441.354 136.857 422.225" style="fill:#1a1a1a"/><polygon points="107.554 473.847 81.845 477.075 81.845 491.146 107.554 487.427 107.554 473.847" style="fill:#666"/><polygon points="136.857 470.169 107.554 473.848 107.554 487.428 136.857 483.19 136.857 470.169" style="fill:#4d4d4d"/><polygon points="107.554 470.891 81.845 474.011 81.845 477.075 107.554 473.847 107.554 470.891" style="fill:#4d4d4d"/><polygon points="136.857 467.334 107.554 470.89 107.554 473.847 136.857 470.169 136.857 467.334" style="fill:#333"/><polygon points="107.554 461.254 81.845 464.027 81.845 474.012 107.554 470.891 107.554 461.254" style="fill:#333"/><polygon points="136.857 458.093 107.554 461.254 107.554 470.891 136.857 467.334 136.857 458.093" style="fill:#1a1a1a"/><polygon points="107.554 443.796 81.845 445.939 81.845 464.027 107.554 461.254 107.554 443.796" style="fill:#1a1a1a"/><polygon points="136.857 441.354 107.554 443.796 107.554 461.254 136.857 458.094 136.857 441.354"/><path d="M298.1347,381.609l-51.77689-.28431Z" style="fill:#4d4d4d"/><path d="M246.35781,381.32476l-109.5017-.60081Z" style="fill:#333"/><polygon points="298.135 395.331 246.358 396.409 246.358 416.169 298.135 413.305 298.135 395.331" style="fill:#4d4d4d"/><polygon points="246.358 396.409 136.856 398.691 136.856 422.226 246.358 416.169 246.358 396.409" style="fill:#333"/><polygon points="298.135 413.305 246.358 416.169 246.358 432.229 298.135 427.914 298.135 413.305" style="fill:#333"/><polygon points="246.358 416.169 136.856 422.225 136.856 441.354 246.358 432.229 246.358 416.169" style="fill:#1a1a1a"/><polygon points="298.135 440.698 246.358 446.282 246.358 451.873 298.135 445.784 298.135 440.698" style="fill:#333"/><polygon points="246.358 446.283 136.856 458.093 136.856 464.752 246.358 451.874 246.358 446.283" style="fill:#1a1a1a"/><polygon points="298.135 427.914 246.358 432.229 246.358 446.283 298.135 440.698 298.135 427.914" style="fill:#1a1a1a"/><polygon points="246.358 432.229 136.856 441.354 136.856 458.093 246.358 446.282 246.358 432.229"/><polygon points="298.135 449.921 246.358 456.421 246.358 467.353 298.135 459.865 298.135 449.921" style="fill:#4d4d4d"/><polygon points="246.358 456.421 136.856 470.169 136.856 483.19 246.358 467.353 246.358 456.421" style="fill:#333"/><polygon points="298.135 447.755 246.358 454.041 246.358 456.421 298.135 449.921 298.135 447.755" style="fill:#333"/><polygon points="246.358 454.041 136.856 467.334 136.856 470.169 246.358 456.421 246.358 454.041" style="fill:#1a1a1a"/><polygon points="298.135 445.784 246.358 451.873 246.358 454.04 298.135 447.755 298.135 445.784" style="fill:#1a1a1a"/><polygon points="246.358 451.873 136.856 464.752 136.856 467.334 246.358 454.041 246.358 451.873"/><polygon points="13.133 590.79 13.133 672.879 56.611 657.328 56.611 585.258 47.119 582.094 13.133 590.79" style="fill:#999"/><polygon points="56.611 579.665 47.119 582.094 56.611 585.258 56.611 579.665" style="fill:gray"/><polygon points="56.611 585.258 56.611 657.328 81.845 648.302 81.845 593.669 56.611 585.258" style="fill:gray"/><polygon points="81.845 573.209 56.611 579.665 56.611 585.258 81.845 593.669 81.845 573.209" style="fill:#666"/><polygon points="81.845 593.669 81.845 648.302 107.554 639.107 107.554 621.774 136.856 612.006 81.845 593.669" style="fill:#666"/><polygon points="136.857 559.133 81.845 573.209 81.845 593.669 136.857 612.006 136.857 559.133" style="fill:#4d4d4d"/><polygon points="136.857 612.006 107.554 621.774 107.554 639.106 136.857 628.626 136.857 612.006" style="fill:#4d4d4d"/><polygon points="246.358 549.745 246.358 575.506 293.887 559.663 246.358 549.745" style="fill:#666"/><polygon points="225.38 545.368 136.856 569.343 136.856 612.006 246.358 575.506 246.358 549.745 225.38 545.368" style="fill:#4d4d4d"/><polygon points="293.887 559.662 246.358 575.506 246.358 589.459 316.483 564.377 293.887 559.662" style="fill:#4d4d4d"/><polygon points="246.358 575.506 136.856 612.006 136.856 628.626 246.358 589.459 246.358 575.506" style="fill:#333"/><polygon points="206.249 541.377 136.856 559.133 136.856 569.343 225.379 545.368 206.249 541.377" style="fill:#333"/><path d="M13.13316,89.73848l21.4629,7.845V78.41973ZM35.02192,78.19522,81.84544,96.47636V53.503ZM121.127,32.78692l333.8483,168.12583v30.03416l53.50284-8.20716L132.09708,27.00182Z" style="fill:#ccc"/><polygon points="121.127 32.787 81.845 53.502 81.845 96.477 136.857 117.956 136.857 103.308 448.977 231.868 454.975 230.947 454.975 200.913 121.127 32.787" style="fill:#b3b3b3"/><polygon points="136.857 103.308 136.857 117.955 279.923 173.814 279.923 187.255 415.869 236.947 448.977 231.867 136.857 103.308" style="fill:#999"/><polygon points="35.022 78.195 34.596 78.42 34.596 97.584 81.845 114.854 81.845 96.476 35.022 78.195" style="fill:#b3b3b3"/><polygon points="81.845 96.477 81.845 114.854 136.856 134.962 136.856 117.955 81.845 96.477" style="fill:#999"/><polygon points="136.857 117.955 136.857 134.962 279.923 187.256 279.923 173.814 136.857 117.955" style="fill:gray"/><polygon points="544.61 332.54 544.61 348.283 615.485 345.931 544.61 332.54" style="fill:#ccc"/><polygon points="13.133 325.984 34.596 327.541 34.596 323.739 13.133 325.984" style="fill:#999"/><polygon points="34.596 323.738 34.596 323.738 34.596 327.541 56.611 329.138 56.611 326.949 34.596 325.289 34.596 323.738" style="fill:gray"/><polygon points="56.611 326.949 56.611 329.138 81.845 330.969 81.845 328.852 56.611 326.949" style="fill:#666"/><polygon points="81.845 328.852 81.845 330.969 136.856 334.958 136.856 333 81.845 328.852" style="fill:#4d4d4d"/><path d="M518.90088,327.68269v21.45324l25.70868-.853V332.54022Zm-63.92549,18.81893v4.75588l34.6247-1.14889Z" style="fill:#b3b3b3"/><polygon points="377.153 338.395 377.153 352.387 390.895 353.384 454.976 351.257 454.976 346.502 377.153 338.395" style="fill:#999"/><polygon points="339.631 334.487 339.631 349.666 377.153 352.387 377.153 338.396 339.631 334.487" style="fill:gray"/><polygon points="279.923 328.267 279.923 343.788 246.358 341.256 246.358 342.901 339.631 349.666 339.631 334.487 279.923 328.267" style="fill:#666"/><polygon points="136.857 333 136.857 334.958 246.358 342.901 246.358 341.257 136.857 333" style="fill:#4d4d4d"/><polygon points="454.975 315.605 454.975 346.502 489.6 350.108 518.901 349.136 518.901 327.683 454.975 315.605" style="fill:#999"/><polygon points="377.153 300.902 377.153 338.395 454.976 346.502 454.976 315.605 377.153 300.902" style="fill:gray"/><polygon points="332.835 292.529 279.923 298.066 279.923 312.635 339.631 320.585 339.631 334.487 377.153 338.395 377.153 300.902 332.835 292.529" style="fill:#666"/><polygon points="279.923 312.635 279.923 328.268 339.631 334.487 339.631 320.585 279.923 312.635" style="fill:#4d4d4d"/><polygon points="56.611 321.435 34.596 323.738 34.596 325.289 56.611 326.949 56.611 321.435" style="fill:#666"/><polygon points="81.845 318.794 56.611 321.435 56.611 326.949 81.845 328.852 81.845 318.794" style="fill:#4d4d4d"/><polygon points="136.857 313.037 81.845 318.794 81.845 328.852 136.857 333 136.857 313.037" style="fill:#333"/><polygon points="246.358 324.771 246.358 341.256 279.923 343.788 279.923 328.268 246.358 324.771" style="fill:#4d4d4d"/><polygon points="136.857 313.037 136.857 313.037 136.857 333 246.358 341.257 246.358 324.771 136.857 313.365 136.857 313.037" style="fill:#333"/><polygon points="279.923 298.066 246.358 301.579 246.358 308.167 279.923 312.635 279.923 298.066" style="fill:#4d4d4d"/><polygon points="246.358 301.579 218.652 304.478 246.358 308.167 246.358 301.579" style="fill:#333"/><polygon points="246.358 308.167 246.358 324.771 279.923 328.268 279.923 312.636 246.358 308.167" style="fill:#333"/><polygon points="218.652 304.478 136.857 313.038 136.857 313.365 246.358 324.771 246.358 308.167 218.652 304.478" style="fill:#1a1a1a"/><polygon points="560.591 421.908 560.591 482.651 730.133 418.35 607.677 415.099 560.591 421.908" style="fill:#ccc"/><polygon points="13.133 501.083 56.611 510.154 56.611 494.795 13.133 501.083" style="fill:#999"/><path d="M56.6111,510.15442l-43.47774-9.07174Z" style="fill:gray"/><polygon points="56.611 494.795 56.611 494.795 56.611 510.154 81.845 515.419 81.845 505.997 56.611 510.154 56.611 494.795" style="fill:gray"/><polygon points="56.611 510.154 56.611 510.154 81.845 515.42 81.845 515.419 56.611 510.154" style="fill:#666"/><polygon points="107.554 501.761 81.845 505.996 81.845 515.419 107.554 520.783 107.554 501.761" style="fill:#666"/><polygon points="81.845 515.419 81.845 515.42 107.554 520.784 81.845 515.419" style="fill:#4d4d4d"/><polygon points="136.857 496.933 107.554 501.761 107.554 520.783 136.857 526.897 136.857 526.898 136.857 496.933" style="fill:#4d4d4d"/><polygon points="107.554 520.783 107.554 520.784 136.856 526.898 136.856 526.897 107.554 520.783" style="fill:#333"/><polygon points="560.592 421.909 531.387 426.132 531.387 462.492 445.365 485.789 445.365 526.353 560.592 482.652 560.592 421.909" style="fill:#b3b3b3"/><polygon points="445.366 485.789 442.468 486.574 442.468 519.315 419.603 527.493 419.603 536.124 445.366 526.353 445.366 485.789" style="fill:#999"/><polygon points="419.603 527.493 408.975 531.294 408.975 540.154 419.603 536.124 419.603 527.493" style="fill:gray"/><polygon points="408.975 531.294 331.685 558.94 331.685 567.549 334.948 568.23 408.975 540.154 408.975 531.294" style="fill:#666"/><polygon points="331.685 558.94 316.482 564.377 331.685 567.549 331.685 558.94" style="fill:#4d4d4d"/><polygon points="531.387 426.132 468.872 435.173 468.872 472.011 445.366 477.881 445.366 485.789 531.387 462.491 531.387 426.132" style="fill:#999"/><polygon points="468.872 435.173 445.365 438.573 445.365 477.881 468.872 472.012 468.872 435.173" style="fill:gray"/><polygon points="445.366 477.881 419.603 484.314 419.603 486.785 442.468 480.934 442.468 486.574 445.366 485.789 445.366 477.881" style="fill:gray"/><polygon points="419.603 484.314 331.685 506.267 331.685 509.281 419.603 486.785 419.603 484.314" style="fill:#666"/><polygon points="331.685 506.267 246.358 527.573 246.358 531.114 331.685 509.281 331.685 506.267" style="fill:#4d4d4d"/><polygon points="246.358 527.573 197.983 539.652 206.249 541.376 246.358 531.114 246.358 527.573" style="fill:#333"/><polygon points="445.366 438.573 419.603 442.299 419.603 484.314 445.366 477.881 445.366 438.573" style="fill:#666"/><polygon points="419.603 442.299 298.135 459.866 298.135 461.985 331.685 456.997 331.685 506.267 419.603 484.314 419.603 442.299" style="fill:#4d4d4d"/><polygon points="331.685 456.997 298.135 461.986 298.135 470.361 246.358 478.892 246.358 527.572 331.685 506.267 331.685 456.997" style="fill:#333"/><polygon points="246.358 478.892 136.856 496.933 136.856 526.898 197.983 539.652 246.358 527.572 246.358 478.892" style="fill:#1a1a1a"/><polygon points="81.845 491.146 56.611 494.795 56.611 510.154 81.845 505.997 81.845 491.146" style="fill:#666"/><polygon points="107.554 487.427 81.845 491.146 81.845 505.997 107.554 501.761 107.554 487.427" style="fill:#4d4d4d"/><polygon points="136.857 483.19 107.554 487.428 107.554 501.761 136.857 496.933 136.857 483.19" style="fill:#333"/><polygon points="298.135 459.865 246.358 467.353 246.358 469.684 298.135 461.986 298.135 459.865" style="fill:#333"/><polygon points="246.358 467.353 136.856 483.189 136.856 485.965 246.358 469.684 246.358 467.353" style="fill:#1a1a1a"/><polygon points="298.135 461.986 246.358 469.684 246.358 478.892 298.135 470.361 298.135 461.986" style="fill:#1a1a1a"/><polygon points="246.358 469.684 136.856 485.965 136.856 496.933 246.358 478.892 246.358 469.684"/><polygon points="442.468 486.574 419.603 492.767 419.603 527.493 442.468 519.315 442.468 486.574" style="fill:gray"/><polygon points="419.603 492.766 331.685 516.577 331.685 547.064 408.975 521.3 408.975 531.295 419.603 527.493 419.603 492.766" style="fill:#666"/><polygon points="331.685 516.577 246.358 539.687 246.358 549.746 293.887 559.663 331.685 547.063 331.685 516.577" style="fill:#4d4d4d"/><polygon points="246.358 539.687 225.38 545.368 246.358 549.745 246.358 539.687" style="fill:#333"/><polygon points="408.975 521.3 331.685 547.063 331.685 558.94 408.975 531.294 408.975 521.3" style="fill:#4d4d4d"/><polygon points="331.685 547.063 293.887 559.662 316.482 564.377 331.685 558.94 331.685 547.063" style="fill:#333"/><polygon points="442.468 480.934 419.603 486.785 419.603 492.766 442.468 486.573 442.468 480.934" style="fill:#666"/><polygon points="419.603 486.785 331.685 509.281 331.685 516.577 419.603 492.766 419.603 486.785" style="fill:#4d4d4d"/><polygon points="331.685 509.281 246.358 531.114 246.358 539.687 331.685 516.577 331.685 509.281" style="fill:#333"/><polygon points="246.358 531.114 206.249 541.376 225.38 545.369 246.358 539.687 246.358 531.114" style="fill:#1a1a1a"/></svg>