<svg xmlns="http://www.w3.org/2000/svg" viewBox="0 0 549 176"><title>logo</title><path d="M64.11864,53.54122V83.62958h9.48843v6.99267H64.11864v38.95143H56.50346V46.42348H75.98059v7.11774Z" style="fill:#fff"/><path d="M92.95913,130.57426c-6.74252,0-12.3594-5.74479-12.3594-14.23264V59.65838c0-8.36562,5.61688-14.23264,12.3594-14.23264s12.3594,5.867,12.3594,14.23264v56.68324C105.31853,124.82947,99.70165,130.57426,92.95913,130.57426Zm4.86928-72.4139a4.85674,4.85674,0,0,0-4.86928-5.11943c-3.12112,0-4.86928,2.37353-4.86928,5.11943v59.67928c0,2.871,1.74816,5.11659,4.86928,5.11659a4.78567,4.78567,0,0,0,4.86928-5.11659Z" style="fill:#fff"/><path d="M112.06105,129.57368V46.42348h7.493v75.66009h12.23432v7.49011Z" style="fill:#fff"/><path d="M137.03283,129.57368V46.42348h7.49011v75.66009h12.23717v7.49011Z" style="fill:#fff"/><path d="M172.36854,130.57426c-6.74252,0-12.36224-5.74479-12.36224-14.23264V59.65838c0-8.36562,5.61972-14.23264,12.36224-14.23264,6.73968,0,12.3594,5.867,12.3594,14.23264v56.68324C184.72794,124.82947,179.10822,130.57426,172.36854,130.57426Zm4.86928-72.4139a4.85673,4.85673,0,0,0-4.86928-5.11943c-3.12112,0-4.86928,2.37353-4.86928,5.11943v59.67928c0,2.871,1.74816,5.11659,4.86928,5.11659a4.78566,4.78566,0,0,0,4.86928-5.11659Z" style="fill:#fff"/><path d="M219.43544,129.57368h-6.86475l-4.622-52.3114-5.4918,52.3114h-6.8676l-6.86759-83.1502h7.36788l3.74648,58.80378,6.24223-58.80378h5.61688l5.11943,58.80378,4.74421-58.80378h6.74252Z" style="fill:#fff"/><path d="M257.76436,53.79136v75.78232h-7.49012V53.79136h-8.11547V46.42348h23.0957v7.36788Z" style="fill:#fff"/><path d="M287.22736,129.57368V92.12027H277.864v37.45341h-7.61518V46.42348H277.864v38.579h9.36335v-38.579h7.493v83.1502Z" style="fill:#fff"/><path d="M301.96029,129.57368V46.42348h20.22757v7.11774H309.45324V83.25437h9.23828v7.11774h-9.23828v32.08667h12.73462v7.1149Z" style="fill:#fff"/><path d="M367.25645,129.57368v-62.05l-1.24788,13.85742-5.86986,48.19255H353.399l-6.12-48.19255-1.373-13.85742v62.05h-6.61745V46.42348h10.98929l5.4918,51.1886,1.373,13.73519,1.373-13.73519,5.36957-51.1886h10.61123v83.1502Z" style="fill:#fff"/><path d="M393.47611,130.57426c-6.74252,0-12.3594-5.74479-12.3594-14.23264V59.65838c0-8.36562,5.61688-14.23264,12.3594-14.23264s12.3594,5.867,12.3594,14.23264v56.68324C405.83551,124.82947,400.21863,130.57426,393.47611,130.57426Zm4.86928-72.4139a4.85674,4.85674,0,0,0-4.86928-5.11943c-3.12112,0-4.86928,2.37353-4.86928,5.11943v59.67928c0,2.871,1.74816,5.11659,4.86928,5.11659a4.78567,4.78567,0,0,0,4.86928-5.11659Z" style="fill:#fff"/><path d="M432.92783,129.57368l-10.98645-42.948-2.49576-12.60954v55.55759h-7.11773V46.42348h7.36788l9.48842,43.44834,2.24562,12.85968v-56.308h7.11773v83.1502Z" style="fill:#fff"/><path d="M445.53737,129.57368V46.42348h20.22757v7.11774H453.03032V83.25437h9.23828v7.11774h-9.23828v32.08667h12.73462v7.1149Z" style="fill:#fff"/><path d="M484.86686,96.98956v32.58412h-7.493V96.98956l-9.23828-50.56608h7.11774l6.36731,38.95427,6.49238-38.95427h7.11489Z" style="fill:#fff"/></svg>