<svg xmlns="http://www.w3.org/2000/svg" viewBox="0 0 742 176"><title>logo2</title><path d="M53.91418,33.48054V81.08528H68.92642V92.14883H53.91418V153.7764H41.8657V22.2191h30.816V33.48054Z" style="fill:#fff"/><path d="M99.54457,155.35948c-10.66778,0-19.5546-9.0892-19.5546-22.51837V43.15889c0-13.23578,8.88682-22.51837,19.5546-22.51837s19.5546,9.28259,19.5546,22.51837v89.68222C119.09917,146.27028,110.21235,155.35948,99.54457,155.35948Zm7.704-114.5707c0-4.34447-2.96377-8.09978-7.704-8.09978-4.93812,0-7.704,3.75531-7.704,8.09978v94.42245c0,4.54235,2.76589,8.09528,7.704,8.09528,4.74024,0,7.704-3.55293,7.704-8.09528Z" style="fill:#fff"/><path d="M129.767,153.7764V22.2191H141.622V141.92581h19.35671V153.7764Z" style="fill:#fff"/><path d="M169.27642,153.7764V22.2191H181.127V141.92581h19.36121V153.7764Z" style="fill:#fff"/><path d="M225.18332,155.35948c-10.66778,0-19.5591-9.0892-19.5591-22.51837V43.15889c0-13.23578,8.89132-22.51837,19.5591-22.51837,10.66328,0,19.5546,9.28259,19.5546,22.51837v89.68222C244.73792,146.27028,235.8466,155.35948,225.18332,155.35948Zm7.704-114.5707c0-4.34447-2.96377-8.09978-7.704-8.09978-4.93812,0-7.704,3.75531-7.704,8.09978v94.42245c0,4.54235,2.76589,8.09528,7.704,8.09528,4.74024,0,7.704-3.55293,7.704-8.09528Z" style="fill:#fff"/><path d="M299.6509,153.7764H288.78974L281.477,71.01116l-8.68893,82.76524H261.9224L251.05674,22.2191h11.6572l5.92754,93.03726,9.87625-93.03726h8.88681l8.09978,93.03726,7.50613-93.03726h10.66778Z" style="fill:#fff"/><path d="M360.29355,33.87631V153.7764H348.443V33.87631h-12.84V22.2191h36.5412V33.87631Z" style="fill:#fff"/><path d="M406.90887,153.7764V94.519H392.09451V153.7764H380.046V22.2191h12.04848V83.25752h14.81436V22.2191H418.764V153.7764Z" style="fill:#fff"/><path d="M430.21878,153.7764V22.2191h32.00334V33.48054H442.07387V80.49163h14.61648V91.75306H442.07387v50.7664h20.14825V153.7764Z" style="fill:#fff"/><path d="M533.52805,153.7764V55.60314L531.5537,77.52786l-9.28709,76.24854H511.60333l-9.68285-76.24854-2.17224-21.92472V153.7764H489.27835V22.2191h17.38686l8.68893,80.98878,2.17224,21.73133,2.17223-21.73133,8.49555-80.98878h16.78871V153.7764Z" style="fill:#fff"/><path d="M575.01186,155.35948c-10.66778,0-19.5546-9.0892-19.5546-22.51837V43.15889c0-13.23578,8.88682-22.51837,19.5546-22.51837s19.5546,9.28259,19.5546,22.51837v89.68222C594.56646,146.27028,585.67964,155.35948,575.01186,155.35948Zm7.704-114.5707c0-4.34447-2.96377-8.09978-7.704-8.09978-4.93812,0-7.704,3.75531-7.704,8.09978v94.42245c0,4.54235,2.76589,8.09528,7.704,8.09528,4.74024,0,7.704-3.55293,7.704-8.09528Z" style="fill:#fff"/><path d="M637.431,153.7764,620.0486,85.82552l-3.94869-19.95037V153.7764H604.83847V22.2191h11.6572l15.01225,68.74242,3.55293,20.34614V22.2191h11.26143V153.7764Z" style="fill:#fff"/><path d="M657.38134,153.7764V22.2191h32.00334V33.48054H669.23643V80.49163H683.8529V91.75306H669.23643v50.7664h20.14825V153.7764Z" style="fill:#fff"/><path d="M719.60706,102.223V153.7764H707.752V102.223L693.13549,22.2191h11.26144l10.07412,61.63207,10.272-61.63207H736Z" style="fill:#fff"/></svg>