<svg xmlns="http://www.w3.org/2000/svg" viewBox="0 0 119.96069 158"><defs><style>.a4a578b7-4d9e-4f41-b97d-63bacba631a4,.a4d820f4-741b-48fa-b072-6f5739318a38,.aeab7cc9-79e2-4762-80cb-af82de4f6247,.be4bb93c-7e30-4941-9524-7ad6ca7b466b,.ec5c933b-fd8b-402d-a435-19c35a90541f,.f9ff8548-90e5-4084-bd2a-8c21681b6432{fill:none;stroke:#e3e6e8;stroke-miterlimit:10;stroke-width:3px;}.f9ff8548-90e5-4084-bd2a-8c21681b6432{stroke-dasharray:30 10 50 10 30 10;}.be4bb93c-7e30-4941-9524-7ad6ca7b466b{stroke-dasharray:30.90179 6.18036 18.54107 6.18036;}.a4d820f4-741b-48fa-b072-6f5739318a38{stroke-dasharray:39 10 50 10 30 10;}.ec5c933b-fd8b-402d-a435-19c35a90541f{stroke-dasharray:21.81088 4.36218 13.08653 4.36218;}.a4a578b7-4d9e-4f41-b97d-63bacba631a4{stroke-dasharray:15 10 50 10 30 10;}</style></defs><title>document</title><g id="f0127747-7f23-4367-b939-2b6e213b683b" data-name="Laag 2"><g id="ab3c1948-0fe5-4077-b151-132b7844d96f" data-name="Laag 1"><path d="M118.96069,1V157H1V1H118.96069m1-1H0V158H119.96069V0Z"/><line class="f9ff8548-90e5-4084-bd2a-8c21681b6432" x1="8.9789" y1="14.9539" x2="106.96283" y2="14.9539"/><line class="aeab7cc9-79e2-4762-80cb-af82de4f6247" x1="8.97889" y1="23.45391" x2="23.97889" y2="23.45391"/><line class="be4bb93c-7e30-4941-9524-7ad6ca7b466b" x1="30.15931" y1="23.45391" x2="88.87268" y2="23.45391"/><line class="aeab7cc9-79e2-4762-80cb-af82de4f6247" x1="91.96277" y1="23.45391" x2="106.96277" y2="23.45391"/><line class="a4d820f4-741b-48fa-b072-6f5739318a38" x1="8.9789" y1="31.9539" x2="106.96283" y2="31.9539"/><line class="f9ff8548-90e5-4084-bd2a-8c21681b6432" x1="8.9789" y1="40.4539" x2="106.96283" y2="40.4539"/><line class="aeab7cc9-79e2-4762-80cb-af82de4f6247" x1="8.97889" y1="48.95391" x2="33.97889" y2="48.95391"/><line class="ec5c933b-fd8b-402d-a435-19c35a90541f" x1="38.34107" y1="48.95391" x2="79.78174" y2="48.95391"/><line class="aeab7cc9-79e2-4762-80cb-af82de4f6247" x1="81.96277" y1="48.95391" x2="106.96277" y2="48.95391"/><line class="a4a578b7-4d9e-4f41-b97d-63bacba631a4" x1="8.9789" y1="57.4539" x2="106.96283" y2="57.4539"/><line class="f9ff8548-90e5-4084-bd2a-8c21681b6432" x1="8.9789" y1="65.9539" x2="106.96283" y2="65.9539"/><line class="aeab7cc9-79e2-4762-80cb-af82de4f6247" x1="8.97889" y1="74.45391" x2="23.97889" y2="74.45391"/><line class="be4bb93c-7e30-4941-9524-7ad6ca7b466b" x1="30.15931" y1="74.45391" x2="88.87268" y2="74.45391"/><line class="aeab7cc9-79e2-4762-80cb-af82de4f6247" x1="91.96277" y1="74.45391" x2="106.96277" y2="74.45391"/><line class="a4d820f4-741b-48fa-b072-6f5739318a38" x1="8.9789" y1="82.9539" x2="106.96283" y2="82.9539"/><line class="f9ff8548-90e5-4084-bd2a-8c21681b6432" x1="8.9789" y1="91.4539" x2="106.96283" y2="91.4539"/><line class="aeab7cc9-79e2-4762-80cb-af82de4f6247" x1="8.97889" y1="99.95391" x2="33.97889" y2="99.95391"/><line class="ec5c933b-fd8b-402d-a435-19c35a90541f" x1="38.34107" y1="99.95391" x2="79.78174" y2="99.95391"/><line class="aeab7cc9-79e2-4762-80cb-af82de4f6247" x1="81.96277" y1="99.95391" x2="106.96277" y2="99.95391"/><line class="a4a578b7-4d9e-4f41-b97d-63bacba631a4" x1="8.9789" y1="108.4539" x2="106.96283" y2="108.4539"/><line class="f9ff8548-90e5-4084-bd2a-8c21681b6432" x1="8.9789" y1="116.9539" x2="106.96283" y2="116.9539"/><line class="aeab7cc9-79e2-4762-80cb-af82de4f6247" x1="8.97889" y1="125.45391" x2="23.97889" y2="125.45391"/><line class="be4bb93c-7e30-4941-9524-7ad6ca7b466b" x1="30.15931" y1="125.45391" x2="88.87268" y2="125.45391"/><line class="aeab7cc9-79e2-4762-80cb-af82de4f6247" x1="91.96277" y1="125.45391" x2="106.96277" y2="125.45391"/><line class="a4d820f4-741b-48fa-b072-6f5739318a38" x1="8.9789" y1="133.9539" x2="106.96283" y2="133.9539"/><line class="f9ff8548-90e5-4084-bd2a-8c21681b6432" x1="8.9789" y1="142.4539" x2="106.96283" y2="142.4539"/></g></g></svg>